<svg xmlns="http://www.w3.org/2000/svg" width="257.921" height="173.976" viewBox="0 0 257.921 173.976">
  <g id="afval_3" transform="translate(-9.421 -5.268)">
    <path id="Path_8" data-name="Path 8" d="M12.65,134.56c8.7-15.35,22.68-27.92,41.33-31.78.58-1-5.57,0-7-1.28-9.78-6.65,9.58-8.28,11.65-3.13C59.94,93.48,64,88.06,69.84,88.8,80,96,53.21,103.57,70.49,107c2.68,0,5.91,1.58,8.51,3,11,6,28,53.57-4.31,46.86C56,149.71-5.21,173.45,12.65,134.56Z" fill="#29abe2"/>
    <path id="Path_9" data-name="Path 9" d="M68.51,103.2,73.07,99A27.93,27.93,0,0,0,77,94.91c1.67-2.33,2.06-5.59-.41-7.55-2.75-2.2-7-.84-9.53,1-3,2.15-4.36,5.29-5.54,8.64l2.74-.35c-1.5-2.47-4.56-3.25-7.26-3.59s-6.41-.55-8.64,1.39-1.34,5,.79,6.57c2.69,2,6.5,2,9.72,1.9l-.76-2.8c-1.08.8-2.9.88-4.2,1.26-1.84.53-3.65,1.14-5.43,1.85a62,62,0,0,0-9.67,4.85,63.64,63.64,0,0,0-16.54,15,89.779,89.779,0,0,0-6.17,9.06c-2,3.34-4,6.89-4.47,10.8a12.3,12.3,0,0,0,2.2,9,15.43,15.43,0,0,0,8.77,5.45c8.23,2.15,16.88.79,25.15-.36a113.44,113.44,0,0,1,12.75-1.24,84.229,84.229,0,0,1,12.89.74c4.15.55,8.29,1.73,12.48,1.89a15.11,15.11,0,0,0,10-3.18c5.94-4.68,7.2-12.67,6.86-19.8a24.19,24.19,0,0,0-3.18-11.32,45.64,45.64,0,0,0-7.37-9,73.919,73.919,0,0,0-8.74-7.35c-3.07-2.23-6.37-4.56-10-5.85a11.7,11.7,0,0,0-5.83-.55c-1.9.3-1.1,3.19.79,2.89,3.72-.58,7.29,2,10.24,3.86a72.392,72.392,0,0,1,8.64,6.55c5.23,4.63,10.7,10.23,12,17.33a32.65,32.65,0,0,1,.12,10.44,17,17,0,0,1-4,9.14,11.85,11.85,0,0,1-8.23,3.86c-3.89.15-7.76-1-11.58-1.57a87,87,0,0,0-23.3-.43c-7.71.92-15.45,2.53-23.25,2-6.08-.43-14-2.56-14.6-9.85-.28-3.57,1.38-7,3.08-10a86.868,86.868,0,0,1,5.48-8.5A61.87,61.87,0,0,1,39.49,111.2,58,58,0,0,1,49.68,106a55.942,55.942,0,0,1,5.66-1.87c1.43-.4,3.08-.5,4.29-1.39a1.494,1.494,0,0,0-.75-2.79c-2.25,0-4.67.15-6.8-.67-1.28-.5-3.12-2-1.11-2.91,1.74-.74,4-.55,5.84-.3,1.62.21,3.93.61,4.85,2.14a1.52,1.52,0,0,0,2.74-.36c.84-2.4,1.78-4.77,3.74-6.49,1.44-1.27,5.12-3.27,6.8-1.43,1.51,1.65-.91,4-2,5.1-2.11,2.09-4.36,4.06-6.54,6.08-1.42,1.31.7,3.43,2.12,2.12Z" fill="#1a1a1a"/>
    <path id="Path_10" data-name="Path 10" d="M119,32.24c5.71-3,19.68-12.46,12.84-20.35-6.08-7-18.1,3.5-20.65,9.2-1.42-4.21-3.75-8.7-7.16-11.63-2.54-2.17-8.7-4.54-9.74.35-.87,4.07,2.46,9.57,4.53,12.8,1.91,3,4.81,8.5,8.46,9.52l-.87,1A204.46,204.46,0,0,0,76.8,114.61c-1.27,9.43-1.86,19.16.62,28.35,1.21,4.52,3.26,9,6.78,12a23.31,23.31,0,0,0,7.8,4.31A40.85,40.85,0,0,0,111.86,161c13.08-2.11,25-10.56,38.21-10.23,2.65.06,5.31.48,7.93.11,4.4-.62,8.22-3.4,11.27-6.63,9.55-10.11,13-25,11.46-38.78s-7.48-26.8-14.67-38.71c-5.13-8.5-11-16.69-18.63-23.05s-17.17-10.78-27.1-10.85" fill="#29abe2"/>
    <path id="Path_11" data-name="Path 11" d="M125.8,33.32A46.21,46.21,0,0,0,135,27c2.85-2.54,5.75-5.85,6.18-9.79a8.7,8.7,0,0,0-5.64-8.88c-3.67-1.3-7.75.39-10.81,2.4-3.49,2.3-7,5.58-8.78,9.43l2.74.36c-1.5-4.36-3.67-8.72-7.1-11.89-2.16-2-5.36-3.65-8.38-3.32-4,.43-4.91,4.51-4.28,7.9.76,4,3.15,7.53,5.25,11s4.56,7.94,8.76,9.24l-.67-2.5a46.421,46.421,0,0,0-3.88,5.89c-1.58,2.66-3.1,5.37-4.56,8.1q-4.42,8.3-8.08,17a205.908,205.908,0,0,0-11.44,36q-2,9.12-3.14,18.4a80.89,80.89,0,0,0-.4,20.09c.74,5.86,2.28,12,5.92,16.74s9.57,7.35,15.44,8.67a43.2,43.2,0,0,0,19.1-.09C127,160.35,132.46,158,138,156s11.35-3.93,17.34-3.94c3.2,0,6.38.56,9.57,0a18.14,18.14,0,0,0,7.6-3.46c9-6.71,14.06-18,15.59-28.92,1.68-12-.67-24.12-5.19-35.3a128.55,128.55,0,0,0-18.74-32.06c-7.47-9.29-17.29-17.21-29.07-20.07a38.91,38.91,0,0,0-8.66-1.1,1.5,1.5,0,1,0,0,3c24.41.33,40.37,23.92,50.14,43.48,5.23,10.46,9.06,22,9.1,33.75,0,10.59-2.93,21.6-9.8,29.84-3.47,4.15-8,7.95-13.63,8.1-3.07.08-6.11-.41-9.19-.18a43.47,43.47,0,0,0-8.31,1.47c-11.11,3-21.37,9.17-33.16,9.2A35.87,35.87,0,0,1,94.2,155.7c-5-2.85-7.76-7.9-9.23-13.35-3.25-12.06-1.31-25.11.92-37.18A203.371,203.371,0,0,1,111,38.26,40,40,0,0,1,114.39,33a1.53,1.53,0,0,0-.67-2.51c-2.82-.88-4.66-4.16-6.12-6.51a60.27,60.27,0,0,1-4.8-8.4c-.68-1.63-2.41-6.4.25-7.23,1.92-.6,4.53.8,6,2,3.34,2.76,5.4,7,6.78,11,.37,1.1,2.16,1.62,2.74.36a20.78,20.78,0,0,1,6-7.16c2.38-1.9,5.68-4,8.87-3.6a5.62,5.62,0,0,1,4.76,5.93c-.31,3.14-2.9,5.82-5.11,7.83a42.9,42.9,0,0,1-8.82,6.09c-1.7.91-.19,3.5,1.52,2.59Z" fill="#1a1a1a"/>
    <path id="Path_12" data-name="Path 12" d="M240.2,117.54c-4.29-10.16-9.53-20-16.72-28.42s-16.42-15.22-27-18.33l-.59-.6c2.74.06,5.64.08,8-1.29s3.86-4.67,2.33-7c-1.3-1.94-4-2.25-6.36-2.1-3.32.21-7.1,1.36-8.31,4.46a36.319,36.319,0,0,0-2.69-8A12.12,12.12,0,0,0,183,50.55a5,5,0,0,0-3.31-.33c-2.55.77-3.32,4.15-2.62,6.72s2.47,5,4.17,7.15q2.79,3.57,5.57,7.16l-.66.94a5.75,5.75,0,0,0-2.14-.14,3.93,3.93,0,0,1-.43,1.88,3.86,3.86,0,0,1-1,1.61,3.78,3.78,0,0,1-1.61,1A3.74,3.74,0,0,1,179,77h-.46l-.5.11a5.36,5.36,0,0,1-1.4.68c.7-.22-1.08,1.89-1.37,2.28-1.06,1.39-2.17,2.73-3.33,4-2.38,2.68-4.9,5.23-7.27,7.93a4.18,4.18,0,0,1-4.16,1.53c-.71,1-1.4,2-2.06,3.11a48.53,48.53,0,0,0-5.73,12A51.889,51.889,0,0,0,151,123.91c.05,6.75.76,13.68,3.9,19.66,1.92,3.67,5,7,9,8,3.51.82,7.14-.29,10.63-1.19a67.34,67.34,0,0,1,22.14-2.26c11.62.94,23.28,5.74,34.62,3a18.25,18.25,0,0,0,7.29-3.38c4.2-3.43,6-9.16,5.81-14.58S242.31,122.54,240.2,117.54Z" fill="#29abe2"/>
    <path id="Path_13" data-name="Path 13" d="M192.8,68.79c-2.38-3.05-4.88-6-7.1-9.21-1.56-2.22-3.42-5.42-2-8.15,1.69-3.17,5.91.25,7.32,2,2.25,2.82,3.12,6.45,4,9.88.29,1.14,2.22,1.58,2.74.36.9-2.12,2.91-3,5.05-3.46,1.92-.4,4.72-.71,6.42.51s.88,3.82-.55,5c-2.1,1.78-5.34,1.58-7.9,1.53a1.51,1.51,0,0,0-1.06,2.56,3.89,3.89,0,0,0,1.07.91,28.18,28.18,0,0,0,2.86.95,48.618,48.618,0,0,1,5.54,2.42,56.08,56.08,0,0,1,10.09,6.69,75.73,75.73,0,0,1,16.25,19.48,123.663,123.663,0,0,1,6.14,11.75,85.319,85.319,0,0,1,5,12.82c2.09,7.56,1.63,17.32-6,21.61-8,4.49-18.22,2.28-26.71.64a101.432,101.432,0,0,0-13.76-2,64.88,64.88,0,0,0-14.12.92q-3.52.6-7,1.49a34.08,34.08,0,0,1-7,1.41c-4.2.18-7.55-2.16-9.82-5.55-4.89-7.3-5.18-17.05-4.77-25.54a40.73,40.73,0,0,1,2.78-13.53,61.87,61.87,0,0,1,6.55-11.52A87.078,87.078,0,0,1,175,82.7a60.56,60.56,0,0,1,9.67-8.7c1.77-1.2,3.82-2.22,6-1.74,1.88.43,2.69-2.47.8-2.89-4.79-1.07-8.8,2.17-12.19,5.12a90,90,0,0,0-9.7,9.82c-6,7-11.67,15.29-13.86,24.38a58.751,58.751,0,0,0-1.31,14.73,51.84,51.84,0,0,0,1.83,13.91c1.22,4.13,3.24,8.29,6.51,11.2,3.58,3.18,7.89,3.9,12.52,3,2.49-.47,4.92-1.23,7.39-1.78a72.122,72.122,0,0,1,7.57-1.3,58.86,58.86,0,0,1,15.12.18c9.7,1.41,19.4,4.58,29.28,3,4.42-.72,8.89-2.5,11.82-6a19.87,19.87,0,0,0,4.32-11.14c.42-4.72-.73-9.49-2.31-13.91a125.86,125.86,0,0,0-5.69-13.18C234.88,91.25,223.08,76.19,206,69.39c-1-.4-2-.76-3-1.09l-.77-.24s.41.34.18.17a3.939,3.939,0,0,1-.49-.51l-1.06,2.57c3.56.07,7.73,0,10.38-2.76,2.19-2.28,3-6.08.63-8.55s-6.1-2.28-9.1-1.79-6.25,2-7.52,5l2.74.36c-1.09-4.31-2.33-8.79-5.53-12.06-2.6-2.65-7.55-5-10.53-1.57-2.62,3-1.67,7.33.1,10.46a48.389,48.389,0,0,0,4,5.54l4.69,6c1.19,1.52,3.3-.62,2.13-2.12Z" fill="#1a1a1a"/>
    <path id="Path_14" data-name="Path 14" d="M160.7,104.58c-6.09-1.35-12,2.9-16.29,7.39a79.11,79.11,0,0,0-20.47,39.37c-.92,4.72-1.39,9.71.22,14.24a11,11,0,0,0,2.89,4.58c2.16,1.93,5.15,2.57,8,3.14l13.23,2.7c5.69,1.14,11.43,2.28,17.23,2.22,5.56-.07,11-1.25,16.48-2.44,4.14-.91,8.36-1.87,12-4.09a22.86,22.86,0,0,0,9.83-14.49,35.86,35.86,0,0,0-.94-17.77,51,51,0,0,0-23.51-29.9c-1.55-.89-3.15-1.69-4.75-2.49a9.59,9.59,0,0,0,8-13.59,6.47,6.47,0,0,0-3.43-3.47c-2.62-1-5.63.58-7.24,2.86s-2.13,5.14-2.61,7.89a14.58,14.58,0,0,0-7.93-12.57,3.71,3.71,0,0,0-3.14-.38,3.63,3.63,0,0,0-1.65,2.5,12.82,12.82,0,0,0,3.16,12Z" fill="#fff"/>
    <path id="Path_15" data-name="Path 15" d="M156.65,104.32c-6.09-1.35-12,2.9-16.28,7.4a78.92,78.92,0,0,0-20.47,39.36c-.92,4.72-1.39,9.71.21,14.24a10.88,10.88,0,0,0,2.9,4.58c2.16,1.93,5.14,2.57,8,3.14l13.23,2.66c5.69,1.14,11.43,2.29,17.24,2.22,5.56-.06,11-1.24,16.47-2.43,4.14-.91,8.37-1.87,12-4.1,5.1-3.14,8.5-8.64,9.83-14.49a36.1,36.1,0,0,0-.94-17.77,51.08,51.08,0,0,0-23.51-29.9c-1.56-.88-3.16-1.68-4.75-2.49a9.59,9.59,0,0,0,8-13.59,6.44,6.44,0,0,0-3.43-3.47c-2.62-1-5.63.58-7.23,2.87s-2.13,5.13-2.62,7.88a14.54,14.54,0,0,0-7.93-12.56,3.67,3.67,0,0,0-3.14-.38A3.63,3.63,0,0,0,152.55,90a12.84,12.84,0,0,0,3.16,12Z" fill="#29abe2"/>
    <path id="Path_16" data-name="Path 16" d="M160.86,102.73c-7.88-1.59-14.53,4.16-19.43,9.6a80,80,0,0,0-12.71,18.92,76,76,0,0,0-7,22.19c-1.06,7.52-.09,16.69,8,19.71a34.842,34.842,0,0,0,5.61,1.39l6.86,1.38c4.48.9,9,1.88,13.49,2.57a54.12,54.12,0,0,0,13.33.58,107.109,107.109,0,0,0,13.08-2.28c4-.88,8-1.81,11.58-3.8a22.31,22.31,0,0,0,7.62-7.22c4.46-6.74,5.16-15.12,3.72-22.91a52.21,52.21,0,0,0-24.22-34.49c-1.86-1.12-3.8-2.09-5.74-3.07l-.76,2.8a11.34,11.34,0,0,0,9.24-6.15,11.09,11.09,0,0,0-.86-11.24,7,7,0,0,0-9.68-1.64c-3.68,2.41-4.7,6.75-5.42,10.82l3,.4a16.29,16.29,0,0,0-4.25-10.5c-2.18-2.39-7.05-6.09-10.05-3-1.32,1.35-1.66,3.49-1.79,5.29a14.23,14.23,0,0,0,.8,5.64,11.72,11.72,0,0,0,2.91,4.87c-.21-.17-.18-.49,0,0,.12.27.22.54.33.81l.46,1.19c.71,1.77,3.61,1,2.9-.8-.27-.67-.53-1.33-.79-2a20.4,20.4,0,0,0-1.9-2.79,11.3,11.3,0,0,1-1.39-8.72c.15-.57.36-1.38,1-1.59s1.7.39,2.27.72a12.64,12.64,0,0,1,3.4,2.82,13.06,13.06,0,0,1,3.13,8.1c0,1.61,2.64,2.13,2.94.4.51-2.87,1-6.22,3.19-8.34,2-1.93,4.9-2.23,6.64.16,3.62,5-.15,12-6,12.59-1.34.13-2.21,2.07-.75,2.8a55.3,55.3,0,0,1,16.75,12.15,49.45,49.45,0,0,1,10,16.61c2.49,7.09,3.54,15,1.08,22.28a21.94,21.94,0,0,1-5,8.28,21.12,21.12,0,0,1-9.25,5.25,116.393,116.393,0,0,1-11.38,2.6,56.42,56.42,0,0,1-12.16,1.19c-8.39-.23-16.75-2.47-25-4.12-3.36-.67-7.44-1-10.29-3.07s-3.82-6.2-4-9.59a42,42,0,0,1,1.47-11.37,77.74,77.74,0,0,1,13.48-28.55,67.067,67.067,0,0,1,6.92-7.94c2.49-2.42,5.39-4.71,8.77-5.72a10.26,10.26,0,0,1,5-.27C162,106,162.75,103.12,160.86,102.73Z" fill="#1a1a1a"/>
    <path id="Path_17" data-name="Path 17" d="M234.3,118.43c-4.4-1-8.65,2.1-11.78,5.35a57.15,57.15,0,0,0-14.8,28.48c-.67,3.41-1,7,.15,10.3a8,8,0,0,0,2.09,3.31c1.57,1.4,3.73,1.86,5.78,2.27l9.58,1.92a59.761,59.761,0,0,0,12.47,1.61,59.47,59.47,0,0,0,11.91-1.76,27.48,27.48,0,0,0,8.67-3,16.59,16.59,0,0,0,7.11-10.48,26,26,0,0,0-.68-12.86,37,37,0,0,0-17-21.63c-1.12-.64-2.28-1.22-3.44-1.8a6.94,6.94,0,0,0,5.8-9.83,4.69,4.69,0,0,0-2.48-2.51c-1.9-.7-4.08.42-5.24,2.07a14,14,0,0,0-1.89,5.71,10.52,10.52,0,0,0-5.74-9.09,2.11,2.11,0,0,0-3.46,1.53,9.29,9.29,0,0,0,2.29,8.66Z" fill="#fff"/>
    <path id="Path_18" data-name="Path 18" d="M229.38,118.25c-4.41-1-8.65,2.09-11.78,5.35a57.13,57.13,0,0,0-14.81,28.47c-.67,3.41-1,7,.15,10.3a8,8,0,0,0,2.1,3.32c1.56,1.39,3.72,1.86,5.78,2.27l9.57,1.92a60.52,60.52,0,0,0,12.47,1.61,58.879,58.879,0,0,0,11.92-1.77,27.26,27.26,0,0,0,8.66-3,16.54,16.54,0,0,0,7.11-10.48,26,26,0,0,0-.68-12.85,36.88,36.88,0,0,0-17-21.63c-1.12-.64-2.28-1.22-3.43-1.8a6.94,6.94,0,0,0,5.79-9.84,4.67,4.67,0,0,0-2.48-2.5c-1.9-.7-4.08.42-5.24,2.07a13.89,13.89,0,0,0-1.89,5.7,10.51,10.51,0,0,0-5.73-9.09,2.69,2.69,0,0,0-2.28-.27,2.61,2.61,0,0,0-1.19,1.8,9.28,9.28,0,0,0,2.29,8.66Z" fill="#29abe2"/>
    <path id="Path_19" data-name="Path 19" d="M234.53,116.7c-5.83-1.14-10.69,2.89-14.36,6.94a58.54,58.54,0,0,0-9.38,13.93,55.55,55.55,0,0,0-5.07,16.25c-.78,5.59.05,12.3,6,14.58,2.82,1.08,6,1.41,9,2,3.26.66,6.51,1.37,9.79,1.88a40.151,40.151,0,0,0,9.79.46,77.245,77.245,0,0,0,9.67-1.67,31.82,31.82,0,0,0,8.26-2.68,16.44,16.44,0,0,0,5.88-5.48c3.27-4.95,3.79-11.09,2.75-16.81a37.47,37.47,0,0,0-7.55-16.3,41.27,41.27,0,0,0-14.33-11.2l-.76,2.79a8.63,8.63,0,0,0,7-4.66,8.41,8.41,0,0,0-.72-8.66,5.43,5.43,0,0,0-7.45-1.23c-2.78,1.78-3.59,5-4.13,8.09l3,.4a12.27,12.27,0,0,0-3.28-8c-1.71-1.84-5.33-4.42-7.68-2.18-2,1.91-1.79,5.76-1,8.16a10.09,10.09,0,0,0,2.23,3.89c-.11-.11-.22-.57,0-.12.07.15.13.32.19.48l.39,1c.7,1.78,3.6,1,2.89-.8l-.54-1.35a8.93,8.93,0,0,0-1.24-1.87,7.87,7.87,0,0,1-1.28-6c.25-1.16.57-1.41,1.68-.83a8.64,8.64,0,0,1,2.39,1.91,9,9,0,0,1,2.28,5.72c0,1.61,2.63,2.13,2.94.4.34-1.9.64-4.1,2-5.6s3.14-1.84,4.37-.26c2.54,3.29,0,8.12-4,8.52-1.34.14-2.22,2.07-.76,2.8a39.64,39.64,0,0,1,12,8.7,35.16,35.16,0,0,1,7.05,11.66c1.81,5,2.62,10.7.92,15.89a14.62,14.62,0,0,1-10,9.67,79.522,79.522,0,0,1-8.05,1.86,40.759,40.759,0,0,1-8.95.9c-5.91-.16-11.78-1.73-17.56-2.89-2.38-.47-5.25-.68-7.35-2-2.27-1.42-3-4.41-3-6.91-.18-5.11,1.46-10.46,3.28-15.19a54.929,54.929,0,0,1,8.42-14.62c3.11-3.86,7.95-9.77,13.58-8.67C235.62,120,236.43,117.06,234.53,116.7Z" fill="#1a1a1a"/>
  </g>
</svg>
