<svg width="40" height="22" viewBox="0 0 40 22" fill="none" xmlns="http://www.w3.org/2000/svg">
<path d="M38.5364 3.89821L21.2725 21.1621C21.0719 21.3644 20.8332 21.5249 20.5702 21.6345C20.3073 21.7441 20.0252 21.8005 19.7403 21.8005C19.4554 21.8005 19.1734 21.7441 18.9104 21.6345C18.6474 21.5249 18.4088 21.3644 18.2081 21.1621L0.944217 3.89821C0.537859 3.49185 0.30957 2.94072 0.30957 2.36604C0.30957 1.79136 0.537859 1.24022 0.944217 0.833866C1.35057 0.427508 1.90171 0.199219 2.47639 0.199219C3.05107 0.199219 3.60221 0.427508 4.00856 0.833866L19.7403 16.5872L35.4721 0.833866C35.8784 0.427508 36.4296 0.199219 37.0042 0.199219C37.5789 0.199219 38.1301 0.427508 38.5364 0.833866C38.9428 1.24022 39.1711 1.79136 39.1711 2.36604C39.1711 2.94072 38.9428 3.49185 38.5364 3.89821Z" fill="white"/>
</svg>
