<svg width="42" height="41" viewBox="0 0 42 41" fill="none" xmlns="http://www.w3.org/2000/svg">
<g clip-path="url(#clip0_73_929)">
<path d="M20.8999 3.6916C26.3772 3.6916 27.0259 3.71562 29.18 3.81172C31.1819 3.8998 32.263 4.23613 32.9837 4.51641C33.9366 4.88477 34.6253 5.3332 35.338 6.0459C36.0587 6.7666 36.4991 7.44727 36.8675 8.4002C37.1478 9.1209 37.4841 10.21 37.5722 12.2039C37.6683 14.366 37.6923 15.0146 37.6923 20.484C37.6923 25.9613 37.6683 26.61 37.5722 28.7641C37.4841 30.766 37.1478 31.8471 36.8675 32.5678C36.4991 33.5207 36.0507 34.2094 35.338 34.9221C34.6173 35.6428 33.9366 36.0832 32.9837 36.4516C32.263 36.7318 31.1739 37.0682 29.18 37.1562C27.0179 37.2523 26.3692 37.2764 20.8999 37.2764C15.4226 37.2764 14.7739 37.2523 12.6198 37.1562C10.6179 37.0682 9.53682 36.7318 8.81611 36.4516C7.86318 36.0832 7.17451 35.6348 6.46182 34.9221C5.74111 34.2014 5.30068 33.5207 4.93232 32.5678C4.65205 31.8471 4.31572 30.758 4.22764 28.7641C4.13154 26.602 4.10752 25.9533 4.10752 20.484C4.10752 15.0066 4.13154 14.358 4.22764 12.2039C4.31572 10.202 4.65205 9.1209 4.93232 8.4002C5.30068 7.44727 5.74912 6.75859 6.46182 6.0459C7.18252 5.3252 7.86318 4.88477 8.81611 4.51641C9.53682 4.23613 10.6259 3.8998 12.6198 3.81172C14.7739 3.71562 15.4226 3.6916 20.8999 3.6916ZM20.8999 0C15.3345 0 14.6378 0.0240234 12.4517 0.120117C10.2735 0.216211 8.77608 0.568555 7.47881 1.07305C6.12549 1.60156 4.98037 2.29824 3.84326 3.44336C2.69814 4.58047 2.00146 5.72559 1.47295 7.0709C0.968457 8.37617 0.616113 9.86562 0.52002 12.0437C0.423926 14.2379 0.399902 14.9346 0.399902 20.5C0.399902 26.0654 0.423926 26.7621 0.52002 28.9482C0.616113 31.1264 0.968457 32.6238 1.47295 33.9211C2.00146 35.2744 2.69814 36.4195 3.84326 37.5566C4.98037 38.6938 6.12549 39.3984 7.4708 39.9189C8.77608 40.4234 10.2655 40.7758 12.4437 40.8719C14.6298 40.968 15.3265 40.992 20.8919 40.992C26.4573 40.992 27.154 40.968 29.3401 40.8719C31.5183 40.7758 33.0157 40.4234 34.313 39.9189C35.6583 39.3984 36.8034 38.6938 37.9405 37.5566C39.0776 36.4195 39.7823 35.2744 40.3028 33.9291C40.8073 32.6238 41.1597 31.1344 41.2558 28.9563C41.3519 26.7701 41.3759 26.0734 41.3759 20.508C41.3759 14.9426 41.3519 14.2459 41.2558 12.0598C41.1597 9.88164 40.8073 8.38418 40.3028 7.08691C39.7983 5.72559 39.1017 4.58047 37.9565 3.44336C36.8194 2.30625 35.6743 1.60156 34.329 1.08105C33.0237 0.576562 31.5343 0.224219 29.3562 0.128125C27.162 0.0240234 26.4653 0 20.8999 0Z" fill="#FF6600"/>
<path d="M20.8999 9.96875C15.0862 9.96875 10.3696 14.6854 10.3696 20.499C10.3696 26.3127 15.0862 31.0293 20.8999 31.0293C26.7136 31.0293 31.4302 26.3127 31.4302 20.499C31.4302 14.6854 26.7136 9.96875 20.8999 9.96875ZM20.8999 27.3297C17.1282 27.3297 14.0692 24.2707 14.0692 20.499C14.0692 16.7273 17.1282 13.6684 20.8999 13.6684C24.6716 13.6684 27.7306 16.7273 27.7306 20.499C27.7306 24.2707 24.6716 27.3297 20.8999 27.3297Z" fill="#FF6600"/>
<path d="M34.305 9.55411C34.305 10.9154 33.1999 12.0125 31.8466 12.0125C30.4853 12.0125 29.3882 10.9074 29.3882 9.55411C29.3882 8.19278 30.4933 7.0957 31.8466 7.0957C33.1999 7.0957 34.305 8.20078 34.305 9.55411Z" fill="#FF6600"/>
</g>
<defs>
<clipPath id="clip0_73_929">
<rect width="41" height="41" fill="white" transform="translate(0.399902)"/>
</clipPath>
</defs>
</svg>
