<svg width="234" height="49" viewBox="0 0 234 49" fill="none" xmlns="http://www.w3.org/2000/svg">
<rect width="234" height="49" fill="#31A3DD"/>
<path d="M25.9415 36.7801H8.86816V34.1101L20.8979 16.5618H9.19461V13.2645H25.6151V15.9667L13.5364 33.4828H25.9415V36.7801Z" fill="white"/>
<path d="M50.6839 36.7801H46.4401L42.3921 22.7544C42.218 22.1432 42.0003 21.2639 41.7392 20.1165C41.478 18.9584 41.3202 18.1542 41.2658 17.7038C41.157 18.3901 40.9774 19.2801 40.7272 20.3738C40.4878 21.4676 40.2865 22.2825 40.1232 22.8187L36.1732 36.7801H31.9293L28.8443 25.0062L25.7104 13.2645H29.6931L33.1045 26.9685C33.6377 29.1667 34.0186 31.1076 34.2471 32.7911C34.3668 31.8797 34.5464 30.861 34.7858 29.7351C35.0252 28.6091 35.2428 27.6977 35.4387 27.0007L39.3234 13.2645H43.1919L47.1746 27.065C47.5554 28.3411 47.958 30.2498 48.3824 32.7911C48.5457 31.2577 48.9374 29.3061 49.5577 26.9363L52.9527 13.2645H56.9028L50.6839 36.7801Z" fill="white"/>
<path d="M72.2924 36.7801H58.7936V13.2645H72.2924V16.5136H62.6947V22.9152H71.6884V26.1321H62.6947V33.5149H72.2924V36.7801Z" fill="white"/>
<path d="M79.8634 24.202H82.5729C84.3902 24.202 85.7069 23.8696 86.523 23.2047C87.3391 22.5399 87.7472 21.5534 87.7472 20.2452C87.7472 18.9155 87.3065 17.9612 86.4251 17.3821C85.5436 16.8031 84.2161 16.5136 82.4424 16.5136H79.8634V24.202ZM79.8634 27.3867V36.7801H75.9623V13.2645H82.7035C85.783 13.2645 88.0628 13.8328 89.5427 14.9694C91.0226 16.1061 91.7625 17.8218 91.7625 20.1165C91.7625 23.0439 90.2173 25.1295 87.1269 26.3734L93.8681 36.7801H89.4284L83.7155 27.3867H79.8634Z" fill="white"/>
<path d="M99.709 36.7801H95.8406V13.2645H109.307V16.5136H99.709V23.8642H108.703V27.1294H99.709V36.7801Z" fill="white"/>
<path d="M112.128 36.7801V13.2645H116.029V36.7801H112.128Z" fill="white"/>
<path d="M140.722 36.7801H135.94L124.204 18.0416H124.073L124.155 19.0871C124.307 21.0816 124.383 22.9045 124.383 24.5558V36.7801H120.841V13.2645H125.575L137.278 31.9065H137.376C137.354 31.6598 137.311 30.7645 137.246 29.2204C137.18 27.6655 137.148 26.4538 137.148 25.5852V13.2645H140.722V36.7801Z" fill="white"/>
<path d="M160.323 36.7801L157.94 30.2498H148.816L146.482 36.7801H142.368L151.297 13.168H155.541L164.469 36.7801H160.323ZM156.912 26.9363L154.675 20.5347C154.512 20.1058 154.284 19.4302 153.99 18.508C153.707 17.5859 153.511 16.9103 153.402 16.4814C153.109 17.8003 152.679 19.2426 152.113 20.8081L149.958 26.9363H156.912Z" fill="white"/>
<path d="M174.358 36.7801H170.457V16.5618H163.438V13.2645H181.377V16.5618H174.358V36.7801Z" fill="white"/>
<path d="M204.732 24.9901C204.732 28.8182 203.758 31.7939 201.81 33.917C199.873 36.0402 197.125 37.1018 193.567 37.1018C189.965 37.1018 187.196 36.0509 185.259 33.9492C183.333 31.8368 182.37 28.8397 182.37 24.9579C182.37 21.0762 183.338 18.0952 185.275 16.0149C187.223 13.9347 189.998 12.8945 193.6 12.8945C197.147 12.8945 199.889 13.9508 201.826 16.0632C203.763 18.1756 204.732 21.1513 204.732 24.9901ZM186.516 24.9901C186.516 27.8853 187.109 30.0836 188.295 31.5848C189.481 33.0753 191.238 33.8205 193.567 33.8205C195.885 33.8205 197.631 33.0806 198.806 31.6009C199.993 30.1211 200.586 27.9175 200.586 24.9901C200.586 22.1056 199.998 19.9181 198.823 18.4276C197.658 16.9371 195.917 16.1919 193.6 16.1919C191.26 16.1919 189.492 16.9371 188.295 18.4276C187.109 19.9181 186.516 22.1056 186.516 24.9901Z" fill="white"/>
<path d="M212.254 24.202H214.963C216.78 24.202 218.097 23.8696 218.913 23.2047C219.729 22.5399 220.137 21.5534 220.137 20.2452C220.137 18.9155 219.697 17.9612 218.815 17.3821C217.934 16.8031 216.606 16.5136 214.833 16.5136H212.254V24.202ZM212.254 27.3867V36.7801H208.353V13.2645H215.094C218.173 13.2645 220.453 13.8328 221.933 14.9694C223.413 16.1061 224.153 17.8218 224.153 20.1165C224.153 23.0439 222.608 25.1295 219.517 26.3734L226.258 36.7801H221.819L216.106 27.3867H212.254Z" fill="white"/>
</svg>
